<?xml version="1.0" encoding="UTF-8" standalone="no"?>
<!DOCTYPE svg PUBLIC "-//W3C//DTD SVG 1.1//EN"
 "http://www.w3.org/Graphics/SVG/1.1/DTD/svg11.dtd">
<!-- Generated by graphviz version 2.38.0 (20140413.2041)
 -->
<!-- Title: G Pages: 1 -->
<svg width="418pt" height="1432pt"
 viewBox="0.00 0.00 417.50 1432.00" xmlns="http://www.w3.org/2000/svg" xmlns:xlink="http://www.w3.org/1999/xlink">
<g id="graph0" class="graph" transform="scale(1 1) rotate(0) translate(4 1428)">
<title>G</title>
<polygon fill="white" stroke="none" points="-4,4 -4,-1428 413.5,-1428 413.5,4 -4,4"/>
<!-- 2099117234944 -->
<g id="node1" class="node"><title>2099117234944</title>
<polygon fill="none" stroke="black" points="235.5,-1387.5 235.5,-1423.5 368.5,-1423.5 368.5,-1387.5 235.5,-1387.5"/>
<text text-anchor="middle" x="302" y="-1401.8" font-family="Times New Roman,serif" font-size="14.00">input_15: InputLayer</text>
</g>
<!-- 2099117236176 -->
<g id="node2" class="node"><title>2099117236176</title>
<polygon fill="none" stroke="black" points="235,-1314.5 235,-1350.5 369,-1350.5 369,-1314.5 235,-1314.5"/>
<text text-anchor="middle" x="302" y="-1328.8" font-family="Times New Roman,serif" font-size="14.00">conv2d_66: Conv2D</text>
</g>
<!-- 2099117234944&#45;&gt;2099117236176 -->
<g id="edge1" class="edge"><title>2099117234944&#45;&gt;2099117236176</title>
<path fill="none" stroke="black" d="M302,-1387.31C302,-1379.29 302,-1369.55 302,-1360.57"/>
<polygon fill="black" stroke="black" points="305.5,-1360.53 302,-1350.53 298.5,-1360.53 305.5,-1360.53"/>
</g>
<!-- 2099117277424 -->
<g id="node3" class="node"><title>2099117277424</title>
<polygon fill="none" stroke="black" points="194.5,-1241.5 194.5,-1277.5 409.5,-1277.5 409.5,-1241.5 194.5,-1241.5"/>
<text text-anchor="middle" x="302" y="-1255.8" font-family="Times New Roman,serif" font-size="14.00">max_pooling2d_41: MaxPooling2D</text>
</g>
<!-- 2099117236176&#45;&gt;2099117277424 -->
<g id="edge2" class="edge"><title>2099117236176&#45;&gt;2099117277424</title>
<path fill="none" stroke="black" d="M302,-1314.31C302,-1306.29 302,-1296.55 302,-1287.57"/>
<polygon fill="black" stroke="black" points="305.5,-1287.53 302,-1277.53 298.5,-1287.53 305.5,-1287.53"/>
</g>
<!-- 2099117277592 -->
<g id="node4" class="node"><title>2099117277592</title>
<polygon fill="none" stroke="black" points="178,-1168.5 178,-1204.5 312,-1204.5 312,-1168.5 178,-1168.5"/>
<text text-anchor="middle" x="245" y="-1182.8" font-family="Times New Roman,serif" font-size="14.00">conv2d_67: Conv2D</text>
</g>
<!-- 2099117277424&#45;&gt;2099117277592 -->
<g id="edge3" class="edge"><title>2099117277424&#45;&gt;2099117277592</title>
<path fill="none" stroke="black" d="M288.202,-1241.31C281.27,-1232.68 272.741,-1222.06 265.098,-1212.53"/>
<polygon fill="black" stroke="black" points="267.661,-1210.14 258.671,-1204.53 262.202,-1214.52 267.661,-1210.14"/>
</g>
<!-- 2099117280616 -->
<g id="node17" class="node"><title>2099117280616</title>
<polygon fill="none" stroke="black" points="237,-219.5 237,-255.5 327,-255.5 327,-219.5 237,-219.5"/>
<text text-anchor="middle" x="282" y="-233.8" font-family="Times New Roman,serif" font-size="14.00">add_13: Add</text>
</g>
<!-- 2099117277424&#45;&gt;2099117280616 -->
<g id="edge20" class="edge"><title>2099117277424&#45;&gt;2099117280616</title>
<path fill="none" stroke="black" d="M314.018,-1241.22C331.006,-1215.07 360,-1163.28 360,-1114.5 360,-1114.5 360,-1114.5 360,-382.5 360,-341.401 361.442,-327.654 341,-292 334.488,-280.642 324.721,-270.367 314.999,-261.927"/>
<polygon fill="black" stroke="black" points="317.219,-259.221 307.274,-255.567 312.77,-264.625 317.219,-259.221"/>
</g>
<!-- 2099117277928 -->
<g id="node5" class="node"><title>2099117277928</title>
<polygon fill="none" stroke="black" points="116.5,-1095.5 116.5,-1131.5 331.5,-1131.5 331.5,-1095.5 116.5,-1095.5"/>
<text text-anchor="middle" x="224" y="-1109.8" font-family="Times New Roman,serif" font-size="14.00">max_pooling2d_42: MaxPooling2D</text>
</g>
<!-- 2099117277592&#45;&gt;2099117277928 -->
<g id="edge4" class="edge"><title>2099117277592&#45;&gt;2099117277928</title>
<path fill="none" stroke="black" d="M239.916,-1168.31C237.518,-1160.2 234.599,-1150.34 231.92,-1141.28"/>
<polygon fill="black" stroke="black" points="235.229,-1140.13 229.037,-1131.53 228.517,-1142.11 235.229,-1140.13"/>
</g>
<!-- 2099117278096 -->
<g id="node6" class="node"><title>2099117278096</title>
<polygon fill="none" stroke="black" points="138,-1022.5 138,-1058.5 272,-1058.5 272,-1022.5 138,-1022.5"/>
<text text-anchor="middle" x="205" y="-1036.8" font-family="Times New Roman,serif" font-size="14.00">conv2d_68: Conv2D</text>
</g>
<!-- 2099117277928&#45;&gt;2099117278096 -->
<g id="edge5" class="edge"><title>2099117277928&#45;&gt;2099117278096</title>
<path fill="none" stroke="black" d="M219.401,-1095.31C217.23,-1087.2 214.59,-1077.34 212.166,-1068.28"/>
<polygon fill="black" stroke="black" points="215.523,-1067.28 209.557,-1058.53 208.761,-1069.09 215.523,-1067.28"/>
</g>
<!-- 2099117280224 -->
<g id="node15" class="node"><title>2099117280224</title>
<polygon fill="none" stroke="black" points="160,-365.5 160,-401.5 250,-401.5 250,-365.5 160,-365.5"/>
<text text-anchor="middle" x="205" y="-379.8" font-family="Times New Roman,serif" font-size="14.00">add_12: Add</text>
</g>
<!-- 2099117277928&#45;&gt;2099117280224 -->
<g id="edge17" class="edge"><title>2099117277928&#45;&gt;2099117280224</title>
<path fill="none" stroke="black" d="M245.527,-1095.48C274.104,-1070.81 321,-1022.15 321,-968.5 321,-968.5 321,-968.5 321,-528.5 321,-487.401 326.44,-471.042 302,-438 291.292,-423.524 275.443,-412.48 259.645,-404.295"/>
<polygon fill="black" stroke="black" points="260.912,-401.02 250.388,-399.802 257.855,-407.317 260.912,-401.02"/>
</g>
<!-- 2099117278432 -->
<g id="node7" class="node"><title>2099117278432</title>
<polygon fill="none" stroke="black" points="77.5,-949.5 77.5,-985.5 292.5,-985.5 292.5,-949.5 77.5,-949.5"/>
<text text-anchor="middle" x="185" y="-963.8" font-family="Times New Roman,serif" font-size="14.00">max_pooling2d_43: MaxPooling2D</text>
</g>
<!-- 2099117278096&#45;&gt;2099117278432 -->
<g id="edge6" class="edge"><title>2099117278096&#45;&gt;2099117278432</title>
<path fill="none" stroke="black" d="M200.159,-1022.31C197.874,-1014.2 195.095,-1004.34 192.543,-995.277"/>
<polygon fill="black" stroke="black" points="195.877,-994.205 189.797,-985.529 189.139,-996.103 195.877,-994.205"/>
</g>
<!-- 2099117278600 -->
<g id="node8" class="node"><title>2099117278600</title>
<polygon fill="none" stroke="black" points="99,-876.5 99,-912.5 233,-912.5 233,-876.5 99,-876.5"/>
<text text-anchor="middle" x="166" y="-890.8" font-family="Times New Roman,serif" font-size="14.00">conv2d_69: Conv2D</text>
</g>
<!-- 2099117278432&#45;&gt;2099117278600 -->
<g id="edge7" class="edge"><title>2099117278432&#45;&gt;2099117278600</title>
<path fill="none" stroke="black" d="M180.401,-949.313C178.23,-941.202 175.59,-931.336 173.166,-922.277"/>
<polygon fill="black" stroke="black" points="176.523,-921.284 170.557,-912.529 169.761,-923.094 176.523,-921.284"/>
</g>
<!-- 2099117279832 -->
<g id="node13" class="node"><title>2099117279832</title>
<polygon fill="none" stroke="black" points="121,-511.5 121,-547.5 211,-547.5 211,-511.5 121,-511.5"/>
<text text-anchor="middle" x="166" y="-525.8" font-family="Times New Roman,serif" font-size="14.00">add_11: Add</text>
</g>
<!-- 2099117278432&#45;&gt;2099117279832 -->
<g id="edge14" class="edge"><title>2099117278432&#45;&gt;2099117279832</title>
<path fill="none" stroke="black" d="M206.527,-949.485C235.104,-924.814 282,-876.154 282,-822.5 282,-822.5 282,-822.5 282,-674.5 282,-633.401 287.44,-617.042 263,-584 252.292,-569.524 236.443,-558.48 220.645,-550.295"/>
<polygon fill="black" stroke="black" points="221.912,-547.02 211.388,-545.802 218.855,-553.317 221.912,-547.02"/>
</g>
<!-- 2099117278936 -->
<g id="node9" class="node"><title>2099117278936</title>
<polygon fill="none" stroke="black" points="38.5,-803.5 38.5,-839.5 253.5,-839.5 253.5,-803.5 38.5,-803.5"/>
<text text-anchor="middle" x="146" y="-817.8" font-family="Times New Roman,serif" font-size="14.00">max_pooling2d_44: MaxPooling2D</text>
</g>
<!-- 2099117278600&#45;&gt;2099117278936 -->
<g id="edge8" class="edge"><title>2099117278600&#45;&gt;2099117278936</title>
<path fill="none" stroke="black" d="M161.159,-876.313C158.874,-868.202 156.095,-858.336 153.543,-849.277"/>
<polygon fill="black" stroke="black" points="156.877,-848.205 150.797,-839.529 150.139,-850.103 156.877,-848.205"/>
</g>
<!-- 2099117279104 -->
<g id="node10" class="node"><title>2099117279104</title>
<polygon fill="none" stroke="black" points="22,-730.5 22,-766.5 156,-766.5 156,-730.5 22,-730.5"/>
<text text-anchor="middle" x="89" y="-744.8" font-family="Times New Roman,serif" font-size="14.00">conv2d_70: Conv2D</text>
</g>
<!-- 2099117278936&#45;&gt;2099117279104 -->
<g id="edge9" class="edge"><title>2099117278936&#45;&gt;2099117279104</title>
<path fill="none" stroke="black" d="M132.202,-803.313C125.27,-794.679 116.741,-784.055 109.098,-774.534"/>
<polygon fill="black" stroke="black" points="111.661,-772.136 102.671,-766.529 106.202,-776.518 111.661,-772.136"/>
</g>
<!-- 2099117279440 -->
<g id="node11" class="node"><title>2099117279440</title>
<polygon fill="none" stroke="black" points="82,-657.5 82,-693.5 172,-693.5 172,-657.5 82,-657.5"/>
<text text-anchor="middle" x="127" y="-671.8" font-family="Times New Roman,serif" font-size="14.00">add_10: Add</text>
</g>
<!-- 2099117278936&#45;&gt;2099117279440 -->
<g id="edge11" class="edge"><title>2099117278936&#45;&gt;2099117279440</title>
<path fill="none" stroke="black" d="M154.849,-803.218C163.076,-784.803 172.953,-754.931 165,-730 161.78,-719.906 155.885,-710.085 149.682,-701.672"/>
<polygon fill="black" stroke="black" points="152.4,-699.464 143.466,-693.769 146.898,-703.792 152.4,-699.464"/>
</g>
<!-- 2099117279104&#45;&gt;2099117279440 -->
<g id="edge10" class="edge"><title>2099117279104&#45;&gt;2099117279440</title>
<path fill="none" stroke="black" d="M98.1987,-730.313C102.68,-721.941 108.162,-711.697 113.137,-702.403"/>
<polygon fill="black" stroke="black" points="116.253,-703.997 117.886,-693.529 110.081,-700.694 116.253,-703.997"/>
</g>
<!-- 2099117279496 -->
<g id="node12" class="node"><title>2099117279496</title>
<polygon fill="none" stroke="black" points="0,-584.5 0,-620.5 254,-620.5 254,-584.5 0,-584.5"/>
<text text-anchor="middle" x="127" y="-598.8" font-family="Times New Roman,serif" font-size="14.00">conv2d_transpose_29: Conv2DTranspose</text>
</g>
<!-- 2099117279440&#45;&gt;2099117279496 -->
<g id="edge12" class="edge"><title>2099117279440&#45;&gt;2099117279496</title>
<path fill="none" stroke="black" d="M127,-657.313C127,-649.289 127,-639.547 127,-630.569"/>
<polygon fill="black" stroke="black" points="130.5,-630.529 127,-620.529 123.5,-630.529 130.5,-630.529"/>
</g>
<!-- 2099117279496&#45;&gt;2099117279832 -->
<g id="edge13" class="edge"><title>2099117279496&#45;&gt;2099117279832</title>
<path fill="none" stroke="black" d="M136.441,-584.313C141.04,-575.941 146.666,-565.697 151.772,-556.403"/>
<polygon fill="black" stroke="black" points="154.899,-557.979 156.646,-547.529 148.764,-554.609 154.899,-557.979"/>
</g>
<!-- 2099117279888 -->
<g id="node14" class="node"><title>2099117279888</title>
<polygon fill="none" stroke="black" points="39,-438.5 39,-474.5 293,-474.5 293,-438.5 39,-438.5"/>
<text text-anchor="middle" x="166" y="-452.8" font-family="Times New Roman,serif" font-size="14.00">conv2d_transpose_30: Conv2DTranspose</text>
</g>
<!-- 2099117279832&#45;&gt;2099117279888 -->
<g id="edge15" class="edge"><title>2099117279832&#45;&gt;2099117279888</title>
<path fill="none" stroke="black" d="M166,-511.313C166,-503.289 166,-493.547 166,-484.569"/>
<polygon fill="black" stroke="black" points="169.5,-484.529 166,-474.529 162.5,-484.529 169.5,-484.529"/>
</g>
<!-- 2099117279888&#45;&gt;2099117280224 -->
<g id="edge16" class="edge"><title>2099117279888&#45;&gt;2099117280224</title>
<path fill="none" stroke="black" d="M175.441,-438.313C180.04,-429.941 185.666,-419.697 190.772,-410.403"/>
<polygon fill="black" stroke="black" points="193.899,-411.979 195.646,-401.529 187.764,-408.609 193.899,-411.979"/>
</g>
<!-- 2099117280280 -->
<g id="node16" class="node"><title>2099117280280</title>
<polygon fill="none" stroke="black" points="78,-292.5 78,-328.5 332,-328.5 332,-292.5 78,-292.5"/>
<text text-anchor="middle" x="205" y="-306.8" font-family="Times New Roman,serif" font-size="14.00">conv2d_transpose_31: Conv2DTranspose</text>
</g>
<!-- 2099117280224&#45;&gt;2099117280280 -->
<g id="edge18" class="edge"><title>2099117280224&#45;&gt;2099117280280</title>
<path fill="none" stroke="black" d="M205,-365.313C205,-357.289 205,-347.547 205,-338.569"/>
<polygon fill="black" stroke="black" points="208.5,-338.529 205,-328.529 201.5,-338.529 208.5,-338.529"/>
</g>
<!-- 2099117280280&#45;&gt;2099117280616 -->
<g id="edge19" class="edge"><title>2099117280280&#45;&gt;2099117280616</title>
<path fill="none" stroke="black" d="M223.64,-292.313C233.381,-283.33 245.459,-272.193 256.096,-262.386"/>
<polygon fill="black" stroke="black" points="258.553,-264.881 263.532,-255.529 253.808,-259.735 258.553,-264.881"/>
</g>
<!-- 2099117280672 -->
<g id="node18" class="node"><title>2099117280672</title>
<polygon fill="none" stroke="black" points="155,-146.5 155,-182.5 409,-182.5 409,-146.5 155,-146.5"/>
<text text-anchor="middle" x="282" y="-160.8" font-family="Times New Roman,serif" font-size="14.00">conv2d_transpose_32: Conv2DTranspose</text>
</g>
<!-- 2099117280616&#45;&gt;2099117280672 -->
<g id="edge21" class="edge"><title>2099117280616&#45;&gt;2099117280672</title>
<path fill="none" stroke="black" d="M282,-219.313C282,-211.289 282,-201.547 282,-192.569"/>
<polygon fill="black" stroke="black" points="285.5,-192.529 282,-182.529 278.5,-192.529 285.5,-192.529"/>
</g>
<!-- 2099117281008 -->
<g id="node19" class="node"><title>2099117281008</title>
<polygon fill="none" stroke="black" points="217,-73.5 217,-109.5 347,-109.5 347,-73.5 217,-73.5"/>
<text text-anchor="middle" x="282" y="-87.8" font-family="Times New Roman,serif" font-size="14.00">dropout_5: Dropout</text>
</g>
<!-- 2099117280672&#45;&gt;2099117281008 -->
<g id="edge22" class="edge"><title>2099117280672&#45;&gt;2099117281008</title>
<path fill="none" stroke="black" d="M282,-146.313C282,-138.289 282,-128.547 282,-119.569"/>
<polygon fill="black" stroke="black" points="285.5,-119.529 282,-109.529 278.5,-119.529 285.5,-119.529"/>
</g>
<!-- 2099117281064 -->
<g id="node20" class="node"><title>2099117281064</title>
<polygon fill="none" stroke="black" points="215,-0.5 215,-36.5 349,-36.5 349,-0.5 215,-0.5"/>
<text text-anchor="middle" x="282" y="-14.8" font-family="Times New Roman,serif" font-size="14.00">conv2d_71: Conv2D</text>
</g>
<!-- 2099117281008&#45;&gt;2099117281064 -->
<g id="edge23" class="edge"><title>2099117281008&#45;&gt;2099117281064</title>
<path fill="none" stroke="black" d="M282,-73.3129C282,-65.2895 282,-55.5475 282,-46.5691"/>
<polygon fill="black" stroke="black" points="285.5,-46.5288 282,-36.5288 278.5,-46.5289 285.5,-46.5288"/>
</g>
</g>
</svg>
