<?xml version="1.0" encoding="UTF-8" standalone="no"?>
<!DOCTYPE svg PUBLIC "-//W3C//DTD SVG 1.1//EN"
 "http://www.w3.org/Graphics/SVG/1.1/DTD/svg11.dtd">
<!-- Generated by graphviz version 2.38.0 (20140413.2041)
 -->
<!-- Title: G Pages: 1 -->
<svg width="551pt" height="1432pt"
 viewBox="0.00 0.00 550.50 1432.00" xmlns="http://www.w3.org/2000/svg" xmlns:xlink="http://www.w3.org/1999/xlink">
<g id="graph0" class="graph" transform="scale(1 1) rotate(0) translate(4 1428)">
<title>G</title>
<polygon fill="white" stroke="none" points="-4,4 -4,-1428 546.5,-1428 546.5,4 -4,4"/>
<!-- 2083353442232 -->
<g id="node1" class="node"><title>2083353442232</title>
<polygon fill="none" stroke="black" points="345,-1387.5 345,-1423.5 497,-1423.5 497,-1387.5 345,-1387.5"/>
<text text-anchor="middle" x="421" y="-1401.8" font-family="Times New Roman,serif" font-size="14.00">Input_Layer: InputLayer</text>
</g>
<!-- 2083353442288 -->
<g id="node2" class="node"><title>2083353442288</title>
<polygon fill="none" stroke="black" points="323,-1314.5 323,-1350.5 519,-1350.5 519,-1314.5 323,-1314.5"/>
<text text-anchor="middle" x="421" y="-1328.8" font-family="Times New Roman,serif" font-size="14.00">Convolution1&#45;128&#45;6x3: Conv2D</text>
</g>
<!-- 2083353442232&#45;&gt;2083353442288 -->
<g id="edge1" class="edge"><title>2083353442232&#45;&gt;2083353442288</title>
<path fill="none" stroke="black" d="M421,-1387.31C421,-1379.29 421,-1369.55 421,-1360.57"/>
<polygon fill="black" stroke="black" points="424.5,-1360.53 421,-1350.53 417.5,-1360.53 424.5,-1360.53"/>
</g>
<!-- 2083353443408 -->
<g id="node3" class="node"><title>2083353443408</title>
<polygon fill="none" stroke="black" points="312,-1241.5 312,-1277.5 530,-1277.5 530,-1241.5 312,-1241.5"/>
<text text-anchor="middle" x="421" y="-1255.8" font-family="Times New Roman,serif" font-size="14.00">MaxPooling1&#45;2x2&#45;2: MaxPooling2D</text>
</g>
<!-- 2083353442288&#45;&gt;2083353443408 -->
<g id="edge2" class="edge"><title>2083353442288&#45;&gt;2083353443408</title>
<path fill="none" stroke="black" d="M421,-1314.31C421,-1306.29 421,-1296.55 421,-1287.57"/>
<polygon fill="black" stroke="black" points="424.5,-1287.53 421,-1277.53 417.5,-1287.53 424.5,-1287.53"/>
</g>
<!-- 2083353443296 -->
<g id="node4" class="node"><title>2083353443296</title>
<polygon fill="none" stroke="black" points="258,-1168.5 258,-1204.5 454,-1204.5 454,-1168.5 258,-1168.5"/>
<text text-anchor="middle" x="356" y="-1182.8" font-family="Times New Roman,serif" font-size="14.00">Convolution2&#45;256&#45;6x3: Conv2D</text>
</g>
<!-- 2083353443408&#45;&gt;2083353443296 -->
<g id="edge3" class="edge"><title>2083353443408&#45;&gt;2083353443296</title>
<path fill="none" stroke="black" d="M405.265,-1241.31C397.201,-1232.5 387.241,-1221.63 378.392,-1211.96"/>
<polygon fill="black" stroke="black" points="380.924,-1209.54 371.59,-1204.53 375.761,-1214.27 380.924,-1209.54"/>
</g>
<!-- 2083341781928 -->
<g id="node17" class="node"><title>2083341781928</title>
<polygon fill="none" stroke="black" points="312.5,-219.5 312.5,-255.5 493.5,-255.5 493.5,-219.5 312.5,-219.5"/>
<text text-anchor="middle" x="403" y="-233.8" font-family="Times New Roman,serif" font-size="14.00">Add1_DeConv3_Pool1: Add</text>
</g>
<!-- 2083353443408&#45;&gt;2083341781928 -->
<g id="edge20" class="edge"><title>2083353443408&#45;&gt;2083341781928</title>
<path fill="none" stroke="black" d="M437.357,-1241.42C446.085,-1231.48 456.363,-1218.32 463,-1205 481.563,-1167.76 487,-1156.11 487,-1114.5 487,-1114.5 487,-1114.5 487,-382.5 487,-341.401 489.29,-327.155 468,-292 460.881,-280.245 450.222,-269.907 439.584,-261.531"/>
<polygon fill="black" stroke="black" points="441.623,-258.686 431.512,-255.518 437.441,-264.299 441.623,-258.686"/>
</g>
<!-- 2083353443744 -->
<g id="node5" class="node"><title>2083353443744</title>
<polygon fill="none" stroke="black" points="241,-1095.5 241,-1131.5 459,-1131.5 459,-1095.5 241,-1095.5"/>
<text text-anchor="middle" x="350" y="-1109.8" font-family="Times New Roman,serif" font-size="14.00">MaxPooling2&#45;2x2&#45;2: MaxPooling2D</text>
</g>
<!-- 2083353443296&#45;&gt;2083353443744 -->
<g id="edge4" class="edge"><title>2083353443296&#45;&gt;2083353443744</title>
<path fill="none" stroke="black" d="M354.548,-1168.31C353.87,-1160.29 353.046,-1150.55 352.288,-1141.57"/>
<polygon fill="black" stroke="black" points="355.769,-1141.2 351.439,-1131.53 348.794,-1141.79 355.769,-1141.2"/>
</g>
<!-- 2083340698680 -->
<g id="node6" class="node"><title>2083340698680</title>
<polygon fill="none" stroke="black" points="171,-1022.5 171,-1058.5 367,-1058.5 367,-1022.5 171,-1022.5"/>
<text text-anchor="middle" x="269" y="-1036.8" font-family="Times New Roman,serif" font-size="14.00">Convolution3&#45;256&#45;6x3: Conv2D</text>
</g>
<!-- 2083353443744&#45;&gt;2083340698680 -->
<g id="edge5" class="edge"><title>2083353443744&#45;&gt;2083340698680</title>
<path fill="none" stroke="black" d="M330.392,-1095.31C320.144,-1086.33 307.439,-1075.19 296.25,-1065.39"/>
<polygon fill="black" stroke="black" points="298.254,-1062.49 288.427,-1058.53 293.64,-1067.75 298.254,-1062.49"/>
</g>
<!-- 2083341456384 -->
<g id="node15" class="node"><title>2083341456384</title>
<polygon fill="none" stroke="black" points="228.5,-365.5 228.5,-401.5 409.5,-401.5 409.5,-365.5 228.5,-365.5"/>
<text text-anchor="middle" x="319" y="-379.8" font-family="Times New Roman,serif" font-size="14.00">Add1_DeConv2_Pool2: Add</text>
</g>
<!-- 2083353443744&#45;&gt;2083341456384 -->
<g id="edge17" class="edge"><title>2083353443744&#45;&gt;2083341456384</title>
<path fill="none" stroke="black" d="M360.118,-1095.43C374.728,-1069.13 400,-1016.66 400,-968.5 400,-968.5 400,-968.5 400,-528.5 400,-487.401 401.88,-473.4 381,-438 374.218,-426.501 364.07,-416.24 353.937,-407.856"/>
<polygon fill="black" stroke="black" points="355.911,-404.956 345.879,-401.546 351.595,-410.467 355.911,-404.956"/>
</g>
<!-- 2083340700136 -->
<g id="node7" class="node"><title>2083340700136</title>
<polygon fill="none" stroke="black" points="154,-949.5 154,-985.5 372,-985.5 372,-949.5 154,-949.5"/>
<text text-anchor="middle" x="263" y="-963.8" font-family="Times New Roman,serif" font-size="14.00">MaxPooling3&#45;2x2&#45;2: MaxPooling2D</text>
</g>
<!-- 2083340698680&#45;&gt;2083340700136 -->
<g id="edge6" class="edge"><title>2083340698680&#45;&gt;2083340700136</title>
<path fill="none" stroke="black" d="M267.548,-1022.31C266.87,-1014.29 266.046,-1004.55 265.288,-995.569"/>
<polygon fill="black" stroke="black" points="268.769,-995.199 264.439,-985.529 261.794,-995.788 268.769,-995.199"/>
</g>
<!-- 2083343247792 -->
<g id="node8" class="node"><title>2083343247792</title>
<polygon fill="none" stroke="black" points="84,-876.5 84,-912.5 280,-912.5 280,-876.5 84,-876.5"/>
<text text-anchor="middle" x="182" y="-890.8" font-family="Times New Roman,serif" font-size="14.00">Convolution4&#45;512&#45;6x3: Conv2D</text>
</g>
<!-- 2083340700136&#45;&gt;2083343247792 -->
<g id="edge7" class="edge"><title>2083340700136&#45;&gt;2083343247792</title>
<path fill="none" stroke="black" d="M243.392,-949.313C233.144,-940.33 220.439,-929.193 209.25,-919.386"/>
<polygon fill="black" stroke="black" points="211.254,-916.488 201.427,-912.529 206.64,-921.753 211.254,-916.488"/>
</g>
<!-- 2083341192272 -->
<g id="node13" class="node"><title>2083341192272</title>
<polygon fill="none" stroke="black" points="141.5,-511.5 141.5,-547.5 322.5,-547.5 322.5,-511.5 141.5,-511.5"/>
<text text-anchor="middle" x="232" y="-525.8" font-family="Times New Roman,serif" font-size="14.00">Add1_DeConv1_Pool3: Add</text>
</g>
<!-- 2083340700136&#45;&gt;2083341192272 -->
<g id="edge14" class="edge"><title>2083340700136&#45;&gt;2083341192272</title>
<path fill="none" stroke="black" d="M273.118,-949.433C287.728,-923.127 313,-870.665 313,-822.5 313,-822.5 313,-822.5 313,-674.5 313,-633.307 313.972,-619.455 293,-584 286.266,-572.616 276.265,-562.385 266.3,-553.993"/>
<polygon fill="black" stroke="black" points="268.378,-551.174 258.379,-547.671 264.011,-556.645 268.378,-551.174"/>
</g>
<!-- 2083343249304 -->
<g id="node9" class="node"><title>2083343249304</title>
<polygon fill="none" stroke="black" points="67,-803.5 67,-839.5 285,-839.5 285,-803.5 67,-803.5"/>
<text text-anchor="middle" x="176" y="-817.8" font-family="Times New Roman,serif" font-size="14.00">MaxPooling4&#45;2x2&#45;2: MaxPooling2D</text>
</g>
<!-- 2083343247792&#45;&gt;2083343249304 -->
<g id="edge8" class="edge"><title>2083343247792&#45;&gt;2083343249304</title>
<path fill="none" stroke="black" d="M180.548,-876.313C179.87,-868.289 179.046,-858.547 178.288,-849.569"/>
<polygon fill="black" stroke="black" points="181.769,-849.199 177.439,-839.529 174.794,-849.788 181.769,-849.199"/>
</g>
<!-- 2083341060304 -->
<g id="node10" class="node"><title>2083341060304</title>
<polygon fill="none" stroke="black" points="0,-730.5 0,-766.5 196,-766.5 196,-730.5 0,-730.5"/>
<text text-anchor="middle" x="98" y="-744.8" font-family="Times New Roman,serif" font-size="14.00">Convolution5&#45;512&#45;6x3: Conv2D</text>
</g>
<!-- 2083343249304&#45;&gt;2083341060304 -->
<g id="edge9" class="edge"><title>2083343249304&#45;&gt;2083341060304</title>
<path fill="none" stroke="black" d="M157.118,-803.313C147.25,-794.33 135.015,-783.193 124.241,-773.386"/>
<polygon fill="black" stroke="black" points="126.459,-770.672 116.708,-766.529 121.747,-775.849 126.459,-770.672"/>
</g>
<!-- 2083341060136 -->
<g id="node11" class="node"><title>2083341060136</title>
<polygon fill="none" stroke="black" points="62.5,-657.5 62.5,-693.5 227.5,-693.5 227.5,-657.5 62.5,-657.5"/>
<text text-anchor="middle" x="145" y="-671.8" font-family="Times New Roman,serif" font-size="14.00">Add1_Conv5_Pool4: Add</text>
</g>
<!-- 2083343249304&#45;&gt;2083341060136 -->
<g id="edge11" class="edge"><title>2083343249304&#45;&gt;2083341060136</title>
<path fill="none" stroke="black" d="M188.831,-803.403C201.052,-784.889 216.065,-754.692 205,-730 199.783,-718.359 190.642,-708.21 181.045,-699.972"/>
<polygon fill="black" stroke="black" points="182.95,-697.015 172.952,-693.511 178.583,-702.485 182.95,-697.015"/>
</g>
<!-- 2083341060304&#45;&gt;2083341060136 -->
<g id="edge10" class="edge"><title>2083341060304&#45;&gt;2083341060136</title>
<path fill="none" stroke="black" d="M109.377,-730.313C114.977,-721.853 121.842,-711.484 128.045,-702.112"/>
<polygon fill="black" stroke="black" points="131.126,-703.799 133.727,-693.529 125.289,-699.935 131.126,-703.799"/>
</g>
<!-- 2083341193168 -->
<g id="node12" class="node"><title>2083341193168</title>
<polygon fill="none" stroke="black" points="5.5,-584.5 5.5,-620.5 284.5,-620.5 284.5,-584.5 5.5,-584.5"/>
<text text-anchor="middle" x="145" y="-598.8" font-family="Times New Roman,serif" font-size="14.00">Deconvolution1&#45;256&#45;2x2&#45;2: Conv2DTranspose</text>
</g>
<!-- 2083341060136&#45;&gt;2083341193168 -->
<g id="edge12" class="edge"><title>2083341060136&#45;&gt;2083341193168</title>
<path fill="none" stroke="black" d="M145,-657.313C145,-649.289 145,-639.547 145,-630.569"/>
<polygon fill="black" stroke="black" points="148.5,-630.529 145,-620.529 141.5,-630.529 148.5,-630.529"/>
</g>
<!-- 2083341193168&#45;&gt;2083341192272 -->
<g id="edge13" class="edge"><title>2083341193168&#45;&gt;2083341192272</title>
<path fill="none" stroke="black" d="M166.06,-584.313C177.174,-575.243 190.979,-563.977 203.081,-554.1"/>
<polygon fill="black" stroke="black" points="205.599,-556.563 211.134,-547.529 201.173,-551.14 205.599,-556.563"/>
</g>
<!-- 2083341333168 -->
<g id="node14" class="node"><title>2083341333168</title>
<polygon fill="none" stroke="black" points="92.5,-438.5 92.5,-474.5 371.5,-474.5 371.5,-438.5 92.5,-438.5"/>
<text text-anchor="middle" x="232" y="-452.8" font-family="Times New Roman,serif" font-size="14.00">Deconvolution2&#45;256&#45;2x2&#45;2: Conv2DTranspose</text>
</g>
<!-- 2083341192272&#45;&gt;2083341333168 -->
<g id="edge15" class="edge"><title>2083341192272&#45;&gt;2083341333168</title>
<path fill="none" stroke="black" d="M232,-511.313C232,-503.289 232,-493.547 232,-484.569"/>
<polygon fill="black" stroke="black" points="235.5,-484.529 232,-474.529 228.5,-484.529 235.5,-484.529"/>
</g>
<!-- 2083341333168&#45;&gt;2083341456384 -->
<g id="edge16" class="edge"><title>2083341333168&#45;&gt;2083341456384</title>
<path fill="none" stroke="black" d="M253.06,-438.313C264.174,-429.243 277.979,-417.977 290.081,-408.1"/>
<polygon fill="black" stroke="black" points="292.599,-410.563 298.134,-401.529 288.173,-405.14 292.599,-410.563"/>
</g>
<!-- 2083341779688 -->
<g id="node16" class="node"><title>2083341779688</title>
<polygon fill="none" stroke="black" points="179.5,-292.5 179.5,-328.5 458.5,-328.5 458.5,-292.5 179.5,-292.5"/>
<text text-anchor="middle" x="319" y="-306.8" font-family="Times New Roman,serif" font-size="14.00">Deconvolution3&#45;128&#45;2x2&#45;2: Conv2DTranspose</text>
</g>
<!-- 2083341456384&#45;&gt;2083341779688 -->
<g id="edge18" class="edge"><title>2083341456384&#45;&gt;2083341779688</title>
<path fill="none" stroke="black" d="M319,-365.313C319,-357.289 319,-347.547 319,-338.569"/>
<polygon fill="black" stroke="black" points="322.5,-338.529 319,-328.529 315.5,-338.529 322.5,-338.529"/>
</g>
<!-- 2083341779688&#45;&gt;2083341781928 -->
<g id="edge19" class="edge"><title>2083341779688&#45;&gt;2083341781928</title>
<path fill="none" stroke="black" d="M339.334,-292.313C350.065,-283.243 363.394,-271.977 375.078,-262.1"/>
<polygon fill="black" stroke="black" points="377.475,-264.657 382.853,-255.529 372.956,-259.311 377.475,-264.657"/>
</g>
<!-- 2083287293176 -->
<g id="node18" class="node"><title>2083287293176</title>
<polygon fill="none" stroke="black" points="263.5,-146.5 263.5,-182.5 542.5,-182.5 542.5,-146.5 263.5,-146.5"/>
<text text-anchor="middle" x="403" y="-160.8" font-family="Times New Roman,serif" font-size="14.00">Deconvolution4&#45;128&#45;2x2&#45;2: Conv2DTranspose</text>
</g>
<!-- 2083341781928&#45;&gt;2083287293176 -->
<g id="edge21" class="edge"><title>2083341781928&#45;&gt;2083287293176</title>
<path fill="none" stroke="black" d="M403,-219.313C403,-211.289 403,-201.547 403,-192.569"/>
<polygon fill="black" stroke="black" points="406.5,-192.529 403,-182.529 399.5,-192.529 406.5,-192.529"/>
</g>
<!-- 2083340469080 -->
<g id="node19" class="node"><title>2083340469080</title>
<polygon fill="none" stroke="black" points="333,-73.5 333,-109.5 473,-109.5 473,-73.5 333,-73.5"/>
<text text-anchor="middle" x="403" y="-87.8" font-family="Times New Roman,serif" font-size="14.00">Dropout&#45;0.5: Dropout</text>
</g>
<!-- 2083287293176&#45;&gt;2083340469080 -->
<g id="edge22" class="edge"><title>2083287293176&#45;&gt;2083340469080</title>
<path fill="none" stroke="black" d="M403,-146.313C403,-138.289 403,-128.547 403,-119.569"/>
<polygon fill="black" stroke="black" points="406.5,-119.529 403,-109.529 399.5,-119.529 406.5,-119.529"/>
</g>
<!-- 2083303392928 -->
<g id="node20" class="node"><title>2083303392928</title>
<polygon fill="none" stroke="black" points="294.5,-0.5 294.5,-36.5 511.5,-36.5 511.5,-0.5 294.5,-0.5"/>
<text text-anchor="middle" x="403" y="-14.8" font-family="Times New Roman,serif" font-size="14.00">Final_Convolution&#45;34&#45;1x1: Conv2D</text>
</g>
<!-- 2083340469080&#45;&gt;2083303392928 -->
<g id="edge23" class="edge"><title>2083340469080&#45;&gt;2083303392928</title>
<path fill="none" stroke="black" d="M403,-73.3129C403,-65.2895 403,-55.5475 403,-46.5691"/>
<polygon fill="black" stroke="black" points="406.5,-46.5288 403,-36.5288 399.5,-46.5289 406.5,-46.5288"/>
</g>
</g>
</svg>
